<?xml version="1.0" encoding="UTF-8"?>
<svg id="Layer_2" xmlns="http://www.w3.org/2000/svg" version="1.1" xmlns:xlink="http://www.w3.org/1999/xlink" viewBox="0 0 264 119.9">
  <!-- Generator: Adobe Illustrator 29.4.0, SVG Export Plug-In . SVG Version: 2.1.0 Build 152)  -->
  <defs>
    <style>
      .st0 {
        fill: url(#linear-gradient1);
      }

      .st1 {
        fill: url(#linear-gradient);
      }
    </style>
    <linearGradient id="linear-gradient" x1="190.6" y1="22.2" x2="262.6" y2="10.4" gradientTransform="translate(0 28.2)" gradientUnits="userSpaceOnUse">
      <stop offset="0" stop-color="#f26a60"/>
      <stop offset="1" stop-color="#ef519d"/>
    </linearGradient>
    <linearGradient id="linear-gradient1" x1="30.4" y1="52.9" x2="202.9" y2="1" gradientTransform="translate(0 28.2)" gradientUnits="userSpaceOnUse">
      <stop offset="0" stop-color="#f26a60"/>
      <stop offset="1" stop-color="#ef519d"/>
    </linearGradient>
  </defs>
  <g id="Layer_1-2">
    <g>
      <path class="st1" d="M198.9,41.6c.2-1.8.5-3.6,1-5.3.6-2.1,1.4-4,2.6-5.9,1.9-3.1,4.5-5.4,7.8-7,1.7-.8,3.5-1.5,5.4-1.9.8-.2,1.6-.3,2.4-.4,1.4-.2,2.7-.2,4.1-.2.7,0,1.5,0,2.2.1,2.2.2,4.4.6,6.5,1.4,2,.7,3.8,1.8,5.4,3,1.4,1.1,2.7,2.3,3.9,3.7.1.2.2.3.4.4,0,0,0,0,.1.1,0,0,.2-.1.3-.2,4-2.6,7.9-5.3,11.9-7.9.2-.1.3-.2.5-.3,0,0,0,0,.1,0h0c0-.1,0-.2,0-.2-.7-.8-1.3-1.6-2.1-2.4-3-3.3-6.6-5.9-10.6-7.9-2.7-1.4-5.6-2.3-8.6-3-1-.2-2-.4-3-.5-.8-.1-1.7-.2-2.5-.3-1.2,0-2.3-.2-3.5-.2,0,0-.2,0-.3,0h-2.2s0,0-.1,0c-.2,0-.4,0-.7,0-.8,0-1.5,0-2.3.1-.6,0-1.1,0-1.7.2-.6,0-1.3.2-1.9.3-.9.1-1.7.3-2.6.5-2.9.6-5.7,1.6-8.4,2.9-2.3,1.1-4.4,2.4-6.4,3.9-3.1,2.4-5.7,5.3-7.8,8.5-.9,1.5-1.8,3.1-2.5,4.7,2.4,5.1,3.6,10.9,3.6,17.5s-1.2,12.4-3.6,17.5c.7,1.7,1.6,3.3,2.6,4.9,1.3,2.1,2.8,3.9,4.6,5.7,2.5,2.5,5.4,4.6,8.7,6.2,2.9,1.5,6,2.6,9.2,3.2,1.1.2,2.2.4,3.2.6.7,0,1.5.2,2.2.2,1.2.1,2.4.2,3.6.2.1,0,.3,0,.4,0,0,0,0,0,0,0h1.8s0,0,.1,0c.5,0,1,0,1.5,0,.6,0,1.3,0,1.9-.1.5,0,1.1,0,1.6-.2.6,0,1.2-.2,1.8-.2.9-.2,1.9-.3,2.8-.5,3.3-.7,6.5-1.9,9.4-3.5,2.5-1.3,4.8-2.9,6.9-4.8,1.5-1.3,2.9-2.7,4.1-4.2.2-.3.4-.5.6-.8,0,0,0,0,0,0h0c-.2-.2-.3-.3-.4-.4-4-2.7-8.1-5.4-12.1-8.1,0,0-.1,0-.2-.1,0,0-.1.1-.2.2-.5.5-.9,1-1.4,1.5-2.2,2.4-4.9,4.2-7.9,5.4-1.3.5-2.6.9-3.9,1.1-.6.1-1.3.2-1.9.3-.6,0-1.2.1-1.8.2-.8,0-1.6,0-2.4,0s-1.5,0-2.2,0c-.8,0-1.6-.2-2.4-.3-2.1-.3-4.2-1-6.1-1.9-1.6-.8-3.2-1.7-4.5-2.9-1.5-1.3-2.8-2.8-3.8-4.5-1-1.6-1.8-3.4-2.3-5.2-.4-1.3-.7-2.6-.9-4-.1-.8-.2-1.6-.3-2.4-.1-1.3-.2-2.7-.1-4,0-.9,0-1.8.2-2.7h0Z"/>
      <path class="st0" d="M182.9,27.8c-.5-.9-.9-1.9-1.5-2.8-3.4-5.7-8.1-10.2-14-13.4-5-2.7-10.5-4.3-16.6-4.7-1.2,0-2.3-.1-3.5-.1s-.6,0-.9,0c-.2,0-.4,0-.6,0h0c-.2,0-.4,0-.6,0-9.5.4-17.2,3.8-23.6,9-7,5.7-12.5,13.6-17.3,22.3-2.3,4.2-4.4,8.5-6.5,12.9-7.9,16.7-14.8,33.7-25.8,41.9-1,.9-2.2,1.6-3.4,2.3-3.4,1.8-7.2,2.8-11.4,2.8h-.3c-1.2,0-2.4,0-3.5-.2-3-.4-5.7-1.2-8.2-2.6-3.4-1.9-6.2-4.6-8.3-8.1-2.1-3.6-3.1-7.7-3.1-12.5s1-9.1,3.1-12.6c2.1-3.5,4.8-6.2,8.3-8.1,3.4-1.9,7.3-2.8,11.7-2.8s8.3.9,11.7,2.8c3.4,1.9,6.2,4.6,8.3,8.1,2.1,3.5,3.1,7.7,3.1,12.6s-.1,3-.3,4.4c4.3-6.6,8-14.7,11.9-23.1,2-4.3,4-8.6,6.1-12.8V7.7h-18v38.5c-2.2-2.4-4.7-4.4-7.6-5.9-5.1-2.8-11-4.1-17.4-4.1s-14.2,1.6-20.1,4.8c-6,3.2-10.6,7.6-14,13.4-3.4,5.7-5.1,12.5-5.1,20.2s1.7,14.5,5.1,20.2c3.4,5.7,8.1,10.2,14,13.4,5,2.7,10.5,4.3,16.6,4.7,1.2,0,2.3.1,3.5.1h1.2c.1,0,.2,0,.3,0,0,0,.2,0,.3,0,9.7-.4,17.5-3.7,23.9-8.8,7-5.6,12.5-13.4,17.3-22,2.3-4.2,4.5-8.5,6.5-12.9,7.9-16.8,14.7-33.8,25.6-42.2,1.1-.9,2.3-1.7,3.5-2.4,3.4-1.8,7.2-2.8,11.4-2.8h.3c1.2,0,2.4,0,3.5.2,3,.4,5.7,1.2,8.2,2.6,3.4,1.9,6.2,4.6,8.3,8.1,2.1,3.6,3.1,7.7,3.1,12.5s-1,9.1-3.1,12.6-4.8,6.2-8.3,8.1c-3.4,1.9-7.3,2.8-11.7,2.8s-8.3-.9-11.7-2.8c-3.4-1.9-6.2-4.6-8.3-8.1-2.1-3.5-3.1-7.7-3.1-12.6s0-2.9.3-4.2c-4.2,6.5-7.8,14.5-11.6,22.8-2.1,4.5-4.2,9-6.4,13.4v34.8h18v-38.5c2.2,2.4,4.7,4.4,7.6,5.9,5.1,2.8,11,4.1,17.4,4.1s14.2-1.6,20.1-4.8c6-3.2,10.6-7.6,14-13.4.5-.9,1-1.8,1.5-2.8,2.4-5.1,3.6-10.9,3.6-17.5s-1.2-12.4-3.6-17.5h0Z"/>
    </g>
  </g>
</svg>